<svg version="1.0" xmlns="http://www.w3.org/2000/svg" preserveAspectRatio="xMidYMid meet" viewBox="27.22 23.03 1343.78 370.77">

<g transform="translate(0.000000,464.000000) scale(0.100000,-0.100000)" fill="#FFFFFF" stroke="none">
<path d="M1738 4398 c-20 -16 -313 -457 -322 -485 -4 -13 1 -30 15 -46 19 -25 27 -27 90 -27 l69 0 0 -380 c0 -367 1 -381 20 -400 18 -18 33 -20 160 -20 127 0 142 2 160 20 19 19 20 33 20 400 l0 380 69 0 c63 0 71 2 90 27 13 16 19 33 15 45 -11 36 -312 485 -329 492 -25 9 -39 7 -57 -6z m212 -433 c0 -3 -18 -5 -40 -5 -27 0 -47 -7 -60 -20 -19 -19 -20 -33 -20 -400 l0 -380 -60 0 -60 0 0 380 c0 367 -1 381 -20 400 -13 13 -33 20 -60 20 -22 0 -40 2 -40 5 0 3 41 66 90 141 l91 134 89 -135 c50 -74 90 -138 90 -140z"/>
<path d="M2755 4331 c-80 -20 -146 -82 -166 -153 -6 -24 -9 -85 -7 -138 3 -82 7 -102 31 -142 l27 -46 -27 -48 c-23 -40 -28 -65 -32 -147 l-6 -99 -78 -28 c-315 -115 -509 -444 -453 -770 29 -167 104 -303 228 -414 76 -68 214 -138 315 -160 265 -58 537 42 707 259 l59 75 236 0 c218 0 238 2 278 21 54 26 97 78 113 135 8 26 11 82 8 142 -3 88 -7 104 -31 141 l-28 41 28 48 c26 44 28 54 28 167 0 121 -3 135 -46 196 -9 12 -6 25 17 59 26 39 29 53 32 145 4 108 -5 158 -39 207 -19 26 -19 26 11 83 27 51 30 66 30 149 0 50 -5 108 -11 129 -13 47 -60 102 -113 130 -41 22 -47 22 -561 24 -286 1 -533 -2 -550 -6z m1086 -149 c27 -30 29 -38 29 -113 0 -90 -14 -129 -55 -147 -19 -9 -161 -12 -531 -12 -554 0 -549 -1 -574 59 -7 19 -11 61 -9 110 4 67 8 83 28 105 13 14 33 27 45 29 11 3 250 4 529 3 l509 -1 29 -33z m-4 -416 c26 -23 28 -29 31 -120 4 -95 4 -96 -26 -126 l-30 -30 -372 0 c-355 0 -373 1 -411 21 -62 31 -184 59 -262 59 l-69 0 3 86 c4 79 6 87 32 110 l28 24 524 0 524 0 28 -24z m-953 -331 c255 -67 435 -301 436 -565 0 -244 -161 -469 -393 -550 -86 -30 -230 -37 -321 -16 -228 54 -402 240 -444 477 -14 82 -14 97 1 181 21 119 70 219 148 303 117 124 253 184 419 185 54 0 121 -7 154 -15z m925 -76 c45 -16 61 -54 61 -143 0 -147 -15 -156 -264 -156 -169 0 -187 2 -193 18 -23 67 -78 167 -121 225 l-51 67 268 0 c170 0 280 -4 300 -11z m28 -443 c27 -24 28 -27 28 -126 0 -99 -1 -102 -28 -126 -28 -24 -31 -24 -229 -24 l-200 0 7 33 c21 95 24 118 25 190 l0 77 184 0 c181 0 185 -1 213 -24z"/>
<path d="M2702 3324 c-15 -10 -22 -25 -22 -47 0 -29 -5 -34 -61 -60 -130 -61 -166 -211 -76 -314 38 -43 86 -66 187 -88 88 -20 138 -47 146 -80 17 -70 -33 -115 -128 -115 -82 0 -126 22 -150 77 -21 48 -49 68 -84 59 -39 -10 -50 -47 -30 -100 23 -60 73 -109 140 -137 46 -18 56 -27 56 -46 0 -43 18 -63 55 -63 37 0 65 28 65 66 0 18 10 26 51 39 96 32 149 100 149 192 0 119 -97 203 -267 229 -23 3 -55 15 -72 25 -93 56 -41 162 79 163 56 0 96 -23 132 -75 22 -31 34 -39 58 -39 37 0 64 36 54 74 -10 42 -89 123 -139 142 -38 14 -45 21 -45 45 0 18 -9 35 -26 48 -32 25 -43 26 -72 5z"/>
<path d="M5320 4304 c-220 -48 -373 -203 -401 -408 -21 -153 24 -282 133 -381 79 -71 137 -100 378 -191 237 -88 267 -102 319 -150 72 -64 88 -133 50 -210 -59 -124 -238 -191 -398 -150 -123 32 -273 133 -355 241 -27 35 -27 37 -11 62 15 23 16 27 1 41 -14 14 -22 10 -83 -49 -38 -35 -110 -104 -162 -152 -87 -82 -92 -90 -77 -105 12 -13 18 -14 28 -4 22 22 39 13 120 -63 97 -91 233 -183 335 -225 277 -115 623 -62 801 124 107 112 148 223 140 387 -4 89 -9 107 -42 173 -71 145 -178 213 -545 347 -117 43 -230 90 -251 104 -67 46 -88 140 -50 215 27 53 74 86 150 106 111 28 224 5 338 -69 61 -39 63 -42 57 -74 -5 -26 -2 -35 10 -40 12 -4 55 32 156 133 76 76 139 144 139 151 0 18 -20 27 -33 14 -20 -20 -47 -11 -125 43 -161 112 -267 147 -449 145 -59 -1 -137 -7 -173 -15z"/>
<path d="M13665 3678 c-8 -19 -21 -24 -75 -30 -79 -8 -163 -38 -230 -83 l-49 -33 -3 47 -3 46 -170 0 c-166 0 -170 -1 -173 -21 -2 -16 4 -23 22 -28 l26 -6 0 -485 0 -485 -25 -6 c-18 -4 -25 -13 -25 -30 l0 -24 200 0 200 0 0 24 c0 18 -6 25 -22 28 l-23 3 -3 274 c-2 261 -1 276 19 318 46 95 159 174 267 189 52 7 53 6 65 -25 7 -19 18 -31 29 -31 17 0 18 14 18 190 0 175 -1 190 -18 190 -9 0 -22 -10 -27 -22z"/>
<path d="M8295 3669 c-302 -43 -499 -298 -482 -624 11 -206 97 -358 262 -460 81 -50 137 -70 238 -86 187 -29 376 26 500 146 43 41 61 52 80 48 29 -6 45 23 23 41 -207 161 -248 189 -256 176 -5 -8 -7 -25 -3 -38 7 -29 -17 -56 -82 -90 -45 -24 -61 -27 -160 -27 -123 0 -169 14 -239 75 -42 38 -61 70 -71 123 l-7 37 433 2 434 3 3 81 c7 207 -81 392 -236 498 -78 53 -152 81 -258 95 -84 12 -94 12 -179 0z m220 -258 c87 -39 144 -97 165 -171 l9 -30 -295 0 -295 0 7 23 c28 92 98 161 196 193 55 18 154 11 213 -15z"/>
<path d="M12135 3671 c-290 -46 -474 -254 -492 -556 -19 -336 211 -595 552 -621 182 -14 337 39 462 159 29 27 52 41 70 42 54 0 31 32 -96 130 -108 83 -126 94 -139 82 -11 -11 -11 -19 -3 -35 9 -18 6 -25 -29 -55 -78 -67 -217 -86 -341 -47 -80 24 -135 69 -165 134 -44 94 -82 86 411 86 l435 0 0 98 c0 240 -113 436 -302 525 -108 52 -254 75 -363 58z m174 -247 c97 -27 188 -109 206 -186 l7 -28 -295 0 -296 0 11 33 c29 86 108 159 196 183 64 17 106 17 171 -2z"/>
<path d="M10922 3654 c-72 -19 -107 -38 -151 -85 -66 -68 -86 -119 -86 -229 0 -79 4 -102 22 -136 46 -85 112 -124 318 -189 147 -45 188 -66 203 -100 42 -92 -28 -155 -171 -155 -84 0 -148 26 -235 93 -49 37 -54 44 -49 73 5 29 -5 44 -28 44 -11 0 -225 -256 -222 -265 2 -5 21 -10 43 -10 30 0 51 -9 94 -41 74 -56 186 -111 262 -129 126 -30 285 -16 385 32 79 39 119 77 155 151 30 60 33 75 33 157 0 71 -4 100 -22 137 -46 101 -157 176 -358 243 -129 43 -160 60 -175 95 -13 32 0 74 29 89 39 21 132 13 186 -17 42 -23 51 -32 55 -62 3 -21 11 -36 20 -37 13 -2 112 102 189 199 21 26 22 31 9 45 -13 12 -19 12 -35 3 -17 -11 -29 -7 -89 29 -127 77 -257 99 -382 65z"/>
<path d="M6915 3635 c-75 -20 -100 -31 -160 -69 l-54 -35 -3 47 -3 47 -170 0 c-166 0 -170 -1 -173 -21 -2 -16 4 -23 22 -28 l26 -6 0 -829 0 -829 -25 -6 c-16 -4 -25 -13 -25 -26 0 -19 7 -20 200 -20 188 0 200 1 200 18 0 11 -11 24 -25 30 l-25 12 0 355 c0 195 2 355 4 355 2 0 28 -16 58 -35 103 -68 146 -80 303 -79 126 0 147 3 207 26 191 73 303 195 353 383 19 75 19 234 0 308 -52 200 -198 348 -391 397 -91 24 -242 26 -319 5z m272 -276 c67 -32 110 -76 145 -149 18 -36 22 -63 22 -135 0 -78 -3 -97 -26 -140 -54 -104 -145 -162 -267 -172 -144 -12 -277 60 -337 184 -55 112 -29 267 60 356 99 99 267 123 403 56z"/>
<path d="M9740 3641 c-61 -12 -126 -39 -177 -73 -23 -15 -44 -28 -47 -28 -3 0 -6 19 -8 43 l-3 42 -175 0 c-174 0 -175 0 -178 -22 -2 -15 2 -23 12 -23 8 0 22 -7 30 -16 14 -14 16 -71 16 -483 0 -488 0 -491 -43 -491 -13 0 -18 -6 -15 -22 3 -23 4 -23 206 -26 l202 -2 0 22 c0 15 -9 27 -22 33 l-23 10 0 290 0 290 26 55 c43 90 96 132 190 150 112 21 200 -23 251 -127 l33 -68 3 -288 c4 -301 2 -317 -39 -317 -14 0 -19 -7 -19 -25 l0 -25 210 0 210 0 0 24 c0 18 -6 25 -22 28 l-23 3 -6 335 c-5 308 -8 340 -28 402 -42 131 -162 249 -294 290 -69 21 -203 31 -267 19z"/>
<path d="M1482 2315 c-80 -28 -98 -37 -397 -210 -288 -167 -277 -162 -290 -140 -49 84 -73 111 -116 129 -32 13 -58 17 -81 12 -41 -8 -243 -118 -280 -153 -59 -56 -61 -132 -6 -228 19 -33 115 -202 213 -375 370 -653 348 -620 413 -641 52 -17 94 -5 216 61 124 68 160 101 176 159 13 50 6 78 -37 154 -18 32 -33 60 -33 62 0 2 26 18 58 35 52 28 61 30 97 20 170 -45 500 -132 545 -145 230 -64 324 -86 385 -91 76 -7 161 7 230 36 23 10 242 141 486 291 244 150 525 322 624 382 99 61 196 123 215 138 74 57 106 177 76 282 -41 140 -167 205 -335 173 -97 -18 -184 -57 -372 -168 -79 -47 -220 -129 -314 -183 -93 -54 -192 -111 -220 -128 -27 -16 -66 -35 -86 -42 l-36 -13 19 63 c17 55 18 71 8 119 -23 112 -102 180 -241 210 -106 22 -253 67 -494 150 -173 60 -197 66 -270 66 -58 0 -100 -7 -153 -25z m478 -185 c146 -49 314 -101 374 -114 122 -28 152 -45 180 -100 35 -70 -10 -157 -89 -172 -41 -7 -102 5 -328 67 -98 27 -185 49 -194 49 -24 0 -53 -30 -53 -55 0 -42 24 -56 151 -91 370 -103 487 -123 598 -104 102 17 117 25 651 339 308 181 425 227 518 202 95 -26 136 -162 69 -235 -18 -20 -535 -341 -1171 -727 -135 -82 -168 -96 -252 -106 -70 -8 -80 -5 -893 214 l-164 44 -76 -45 c-42 -24 -79 -41 -83 -38 -11 11 -328 570 -328 579 0 4 33 26 73 49 39 22 164 94 277 159 371 214 362 213 740 85z m-1180 -385 c75 -132 205 -360 288 -508 122 -215 150 -271 143 -286 -11 -19 -202 -131 -225 -131 -21 0 -37 24 -153 230 -61 107 -185 327 -277 488 -91 161 -166 299 -166 307 0 16 18 29 134 97 45 25 90 46 101 45 14 -2 55 -65 155 -242z"/>
<path d="M540 1830 c-41 -41 -13 -110 44 -110 41 0 66 26 66 68 0 56 -70 82 -110 42z"/>
<path d="M4835 1269 c-91 -22 -127 -110 -66 -161 16 -14 56 -33 91 -42 58 -16 100 -44 100 -65 0 -6 -10 -22 -23 -37 -19 -22 -34 -28 -78 -31 -67 -5 -103 12 -107 50 -3 21 -9 27 -28 27 -21 0 -24 -5 -24 -34 0 -60 43 -86 141 -86 103 0 169 46 169 117 0 46 -35 76 -116 99 -66 19 -104 44 -104 68 0 44 116 74 165 42 14 -9 25 -25 25 -36 0 -13 7 -20 20 -20 43 0 37 71 -8 94 -38 20 -110 27 -157 15z"/>
<path d="M5176 1165 c-34 -23 -36 -23 -36 -5 0 27 -28 25 -35 -2 -2 -13 -16 -88 -30 -168 -15 -80 -29 -155 -32 -167 -4 -19 -1 -23 20 -23 20 0 27 6 31 30 19 99 15 91 39 75 49 -34 144 -10 172 45 44 86 39 179 -12 220 -34 27 -72 25 -117 -5z m99 -36 c14 -14 10 -110 -5 -140 -24 -45 -42 -59 -80 -59 -48 0 -60 14 -60 75 0 58 26 114 61 133 25 13 66 8 84 -9z"/>
<path d="M5460 1172 c-95 -48 -122 -225 -40 -267 64 -33 165 -11 189 42 16 34 14 43 -9 43 -11 0 -20 -4 -20 -8 0 -5 -9 -18 -20 -30 -29 -31 -103 -31 -124 0 -9 12 -16 33 -16 45 0 22 2 23 104 23 113 0 116 2 116 60 0 49 -18 80 -55 95 -46 20 -82 19 -125 -3z m108 -38 c16 -11 22 -24 20 -42 -3 -26 -6 -27 -67 -30 -85 -4 -94 0 -79 34 12 26 56 53 88 54 9 0 26 -7 38 -16z"/>
<path d="M5814 1181 c-12 -5 -25 -14 -29 -20 -9 -16 -25 -13 -25 4 0 8 -8 15 -18 15 -16 0 -22 -19 -41 -127 -30 -166 -29 -158 -4 -161 19 -3 23 4 33 55 19 103 31 147 43 161 20 24 66 43 92 36 30 -8 32 -30 10 -154 -19 -107 -19 -102 8 -98 19 3 24 14 39 88 22 107 23 174 3 190 -19 16 -84 22 -111 11z"/>
<path d="M6074 1179 c-36 -10 -59 -34 -67 -70 -9 -37 15 -65 76 -84 64 -21 81 -36 72 -64 -12 -40 -113 -43 -130 -3 -11 25 -55 31 -55 8 0 -47 44 -76 115 -76 79 0 125 36 125 98 0 36 -12 47 -87 76 -43 16 -59 28 -61 44 -7 44 104 54 115 11 7 -24 53 -27 53 -3 0 57 -73 87 -156 63z"/>
<path d="M6355 1176 c-64 -28 -95 -87 -95 -178 0 -35 6 -54 24 -75 22 -26 30 -28 96 -28 68 0 73 2 101 33 16 18 29 39 29 47 0 26 -35 16 -58 -15 -19 -25 -29 -30 -67 -30 -48 0 -75 24 -75 67 0 22 2 23 104 23 99 0 104 1 110 23 28 107 -64 180 -169 133z m113 -54 c7 -9 11 -26 10 -37 -3 -17 -12 -20 -72 -23 -38 -2 -74 2 -79 7 -13 13 17 59 46 71 30 13 79 4 95 -18z"/>
<path d="M7081 1172 c-58 -29 -75 -63 -79 -151 -4 -77 -4 -78 28 -104 38 -33 115 -37 161 -10 40 24 70 90 72 155 1 65 -14 95 -58 114 -46 19 -83 18 -124 -4z m122 -54 c28 -34 12 -121 -31 -170 -18 -21 -94 -25 -110 -5 -35 42 -13 165 36 192 34 19 81 12 105 -17z"/>
<path d="M7733 1180 c-12 -5 -26 -17 -32 -27 -10 -16 -10 -16 -11 5 0 15 -6 22 -18 22 -16 0 -22 -19 -41 -132 -13 -73 -24 -137 -25 -143 0 -5 9 -11 21 -13 23 -3 23 -4 44 120 13 80 37 115 84 124 28 5 35 11 35 30 0 26 -17 30 -57 14z"/>
<path d="M8046 1180 c-44 -14 -75 -49 -91 -104 -19 -63 -19 -90 0 -131 19 -39 51 -55 111 -55 56 0 99 22 119 60 20 38 19 40 -10 40 -14 0 -25 -4 -25 -10 0 -24 -41 -50 -78 -50 -48 0 -70 16 -78 57 l-6 32 108 3 109 3 3 51 c2 42 -1 57 -20 78 -26 29 -93 42 -142 26z m92 -46 c14 -10 22 -25 22 -45 l0 -29 -75 0 c-66 0 -75 2 -75 18 0 10 10 28 23 39 39 36 71 41 105 17z"/>
<path d="M8647 1171 c-29 -15 -37 -16 -37 -5 0 8 -9 14 -19 14 -21 0 -22 -2 -61 -220 -11 -63 -23 -125 -25 -137 -5 -19 -1 -23 19 -23 26 0 30 8 41 77 l7 43 28 -15 c39 -20 89 -19 126 4 81 49 97 228 24 266 -38 20 -58 19 -103 -4z m67 -31 c47 -17 43 -134 -7 -187 -27 -30 -91 -32 -107 -4 -26 50 3 161 49 186 32 17 33 17 65 5z"/>
<path d="M8920 1172 c-95 -48 -122 -225 -40 -267 34 -18 112 -20 143 -4 50 26 76 89 37 89 -11 0 -20 -4 -20 -10 0 -26 -41 -50 -84 -50 -49 0 -76 24 -76 67 0 22 2 23 104 23 115 0 116 1 116 66 0 48 -15 73 -55 90 -46 19 -83 18 -125 -4z m108 -38 c16 -11 22 -24 20 -42 -3 -26 -6 -27 -67 -30 -85 -4 -94 0 -79 34 12 26 56 53 88 54 9 0 26 -7 38 -16z"/>
<path d="M9280 1179 c-13 -5 -33 -17 -42 -26 -17 -15 -18 -15 -18 5 0 15 -6 22 -18 22 -16 0 -22 -18 -41 -132 -26 -161 -26 -158 -1 -158 21 0 23 4 41 110 6 35 17 77 25 92 18 35 68 62 100 54 29 -8 31 -40 9 -166 -8 -47 -15 -86 -15 -88 0 -2 10 -2 23 0 19 3 24 14 39 88 21 106 23 174 4 189 -20 17 -77 22 -106 10z"/>
<path d="M9521 1172 c-21 -10 -40 -30 -47 -48 -19 -47 0 -75 66 -97 64 -22 80 -33 80 -58 0 -26 -33 -41 -83 -37 -32 2 -44 8 -52 26 -10 22 -39 30 -49 13 -12 -18 13 -58 43 -71 19 -7 54 -11 88 -8 67 6 103 38 103 92 0 40 -11 50 -87 80 -48 18 -58 26 -58 46 0 19 7 26 33 34 38 11 82 -5 82 -29 0 -9 9 -15 25 -15 46 0 26 61 -26 79 -45 16 -79 14 -118 -7z"/>
<path d="M9810 1172 c-64 -32 -102 -122 -86 -207 9 -49 53 -75 125 -75 47 0 57 4 87 34 19 19 34 41 34 50 0 26 -35 18 -58 -14 -19 -25 -29 -30 -67 -30 -48 0 -75 24 -75 67 0 22 2 23 104 23 115 0 116 1 116 66 0 48 -15 73 -55 90 -46 19 -83 18 -125 -4z m118 -50 c7 -9 11 -26 10 -37 -3 -18 -12 -20 -80 -23 -43 -2 -78 1 -78 5 1 19 29 57 51 69 29 17 79 10 97 -14z"/>
<path d="M6740 1161 c0 -10 11 -68 25 -129 14 -61 25 -122 25 -136 0 -29 -42 -66 -76 -66 -15 0 -24 -6 -24 -15 0 -40 83 -23 118 25 20 27 182 325 182 335 0 3 -10 5 -23 5 -19 0 -32 -18 -77 -110 -30 -60 -57 -110 -60 -110 -3 0 -13 45 -23 101 -9 55 -19 105 -23 110 -10 17 -44 10 -44 -10z"/>
<path d="M7327 1083 c-24 -134 -23 -159 8 -179 31 -20 107 -14 134 10 17 16 19 16 24 -4 5 -19 37 -29 37 -12 0 9 38 225 45 260 5 18 1 22 -20 22 -14 0 -25 -2 -25 -4 0 -2 -7 -41 -16 -87 -24 -127 -47 -159 -114 -159 -19 0 -33 6 -37 16 -5 14 7 120 24 207 5 23 2 27 -18 27 -23 0 -25 -6 -42 -97z"/>
<path d="M8305 1109 l36 -71 -60 -68 c-34 -38 -61 -71 -61 -74 0 -3 11 -6 25 -6 17 0 36 15 67 54 24 30 46 55 50 55 4 1 19 -23 35 -51 19 -36 35 -54 51 -56 30 -5 28 9 -14 85 l-37 65 39 41 c22 23 50 54 63 70 l24 27 -30 0 c-24 0 -37 -10 -69 -50 -21 -27 -42 -49 -45 -50 -3 0 -18 23 -33 50 -21 39 -33 50 -52 50 l-24 0 35 -71z"/>
</g>
</svg>