<?xml version="1.0" standalone="no"?>
<!DOCTYPE svg PUBLIC "-//W3C//DTD SVG 20010904//EN"
 "http://www.w3.org/TR/2001/REC-SVG-20010904/DTD/svg10.dtd">
<svg version="1.0" xmlns="http://www.w3.org/2000/svg"
 width="512.000000pt" height="512.000000pt" viewBox="0 0 512.000000 512.000000"
 preserveAspectRatio="xMidYMid meet">

<g transform="translate(0.000000,512.000000) scale(0.100000,-0.100000)"
fill="#000000" stroke="none">
<path d="M2032 5023 c-10 -10 -111 -157 -222 -326 -221 -335 -227 -349 -175
-394 23 -20 37 -23 116 -23 l89 0 0 -510 0 -511 25 -24 c24 -25 26 -25 215
-25 189 0 191 0 215 25 l25 24 0 511 0 510 89 0 c80 0 93 3 117 23 51 44 45
58 -181 402 -115 174 -216 320 -226 326 -27 14 -65 11 -87 -8z m171 -392 c64
-99 117 -182 117 -185 0 -3 -20 -6 -45 -6 -55 0 -90 -15 -104 -47 -8 -16 -11
-179 -11 -523 l0 -500 -80 0 -80 0 0 501 c0 361 -3 506 -12 522 -19 36 -40 46
-96 47 -30 0 -52 4 -50 8 7 18 233 362 238 362 3 0 58 -81 123 -179z"/>
<path d="M3350 4920 c-41 -14 -68 -32 -107 -74 -73 -78 -87 -129 -81 -295 4
-111 7 -132 30 -177 15 -27 33 -56 42 -63 14 -12 13 -16 -9 -45 -47 -62 -59
-104 -64 -239 l-6 -129 -70 -22 c-141 -45 -250 -112 -364 -220 -173 -167 -270
-374 -287 -616 -21 -287 110 -590 338 -779 94 -79 264 -164 383 -192 125 -30
305 -30 429 0 225 54 441 203 563 388 l36 53 302 0 c365 0 379 3 466 89 73 74
89 122 89 276 0 128 -16 194 -58 245 l-29 35 24 32 c48 63 63 123 63 253 0
134 -14 193 -61 252 -25 32 -27 38 -13 49 9 7 27 36 42 63 24 46 27 64 30 181
4 150 -4 192 -51 263 l-33 49 28 34 c47 55 61 122 56 267 -3 103 -8 136 -25
174 -29 63 -93 123 -159 148 -53 19 -74 20 -752 20 -657 -1 -700 -2 -752 -20z
m1467 -160 c51 -31 63 -65 63 -180 0 -113 -13 -156 -58 -187 -25 -17 -70 -18
-706 -21 -669 -3 -679 -2 -721 18 -61 30 -75 65 -75 187 0 116 16 159 70 185
32 17 88 18 715 18 657 0 681 -1 712 -20z m11 -575 c46 -39 54 -70 50 -195
l-3 -112 -37 -34 -38 -34 -493 0 -493 0 -52 25 c-95 46 -219 76 -335 82 l-109
6 4 103 c3 111 17 145 69 171 18 10 187 13 716 13 l691 0 30 -25z m-1300 -441
c153 -31 276 -98 387 -209 89 -88 141 -167 181 -275 114 -303 40 -621 -194
-842 -317 -299 -803 -283 -1099 36 -116 125 -179 257 -204 426 -44 302 109
615 381 777 152 91 366 125 548 87z m1289 -119 c50 -30 63 -68 63 -185 0 -115
-12 -149 -63 -180 -30 -18 -52 -20 -288 -20 l-256 0 -12 39 c-20 69 -98 214
-148 275 -26 32 -54 67 -62 78 -14 19 -7 19 360 16 351 -3 376 -4 406 -23z
m-7 -563 c54 -27 70 -69 70 -187 0 -118 -16 -160 -70 -187 -31 -16 -67 -18
-292 -18 -142 0 -258 2 -258 3 0 2 9 39 21 83 12 48 23 128 26 202 l6 122 231
0 c200 0 236 -2 266 -18z"/>
<path d="M3344 3600 c-32 -13 -54 -50 -54 -90 0 -34 -3 -37 -43 -47 -158 -43
-249 -239 -176 -384 43 -86 126 -136 280 -170 52 -11 113 -29 136 -40 98 -47
104 -152 12 -199 -121 -62 -292 -14 -324 92 -21 67 -91 90 -135 43 -69 -74 48
-254 198 -302 51 -16 52 -17 52 -55 0 -78 83 -116 135 -63 18 17 25 35 25 63
0 37 2 40 33 46 51 10 129 51 165 87 54 54 76 105 75 179 -1 158 -101 251
-322 301 -53 12 -113 30 -133 40 -69 35 -83 104 -36 165 29 36 77 54 145 54
75 0 128 -29 163 -90 33 -56 65 -74 109 -59 59 21 67 79 23 150 -39 60 -104
115 -166 138 -49 18 -51 21 -54 59 -5 60 -59 102 -108 82z"/>
<path d="M1818 2270 c-148 -26 -225 -64 -682 -329 -181 -105 -333 -191 -337
-191 -5 0 -26 31 -48 69 -65 110 -125 147 -225 139 -42 -3 -80 -20 -201 -88
-83 -46 -166 -100 -185 -120 -59 -60 -75 -150 -41 -225 22 -48 746 -1329 772
-1367 24 -34 113 -78 157 -78 57 0 100 18 257 109 187 108 210 134 210 244 0
67 -3 77 -47 156 -27 45 -46 86 -44 90 3 3 38 24 78 45 l74 39 564 -151 c311
-83 594 -158 630 -166 138 -33 312 -12 440 53 32 16 428 257 881 536 889 546
908 559 943 662 52 150 17 308 -88 401 -112 98 -258 115 -448 51 -121 -39
-148 -54 -691 -371 -398 -231 -556 -318 -581 -318 -1 0 8 33 22 73 29 88 26
159 -11 240 -56 122 -131 172 -323 216 -164 37 -312 83 -572 175 -114 41 -231
81 -260 90 -67 19 -183 27 -244 16z m291 -202 c365 -127 531 -181 661 -213 80
-20 162 -40 183 -46 49 -13 113 -71 128 -116 22 -68 -8 -157 -67 -194 -73 -45
-116 -39 -515 71 -119 33 -226 60 -239 60 -58 0 -92 -82 -52 -129 27 -32 546
-174 741 -202 107 -15 259 -7 331 19 83 29 117 48 605 333 248 144 492 282
543 307 180 85 322 91 397 16 67 -67 73 -200 12 -269 -35 -39 -1693 -1055
-1767 -1083 -87 -32 -203 -39 -295 -18 -38 9 -329 86 -646 171 -317 85 -584
155 -594 155 -10 0 -61 -25 -112 -55 -52 -30 -97 -55 -101 -55 -8 0 -435 753
-440 774 -3 15 713 433 810 473 156 63 239 63 417 1z m-1527 -285 c29 -33 752
-1318 756 -1343 5 -33 -7 -42 -160 -129 -130 -72 -157 -81 -177 -58 -26 32
-761 1341 -761 1357 0 9 8 24 18 32 33 30 267 157 288 158 11 0 28 -8 36 -17z"/>
<path d="M458 1605 c-38 -21 -54 -75 -33 -114 44 -86 165 -58 165 38 0 32 -6
44 -31 65 -34 29 -61 32 -101 11z"/>
</g>
</svg>
