<?xml version="1.0" encoding="utf-8"?>
<svg viewBox="27.22 23.03 1343.78 370.77" xmlns="http://www.w3.org/2000/svg">
  <g transform="matrix(0.10000000149011612, 0, 0, -0.10000000149011612, 0, 463.99999999999994)" fill="#000000" stroke="none">
    <path d="M5320 4304 c-220 -48 -373 -203 -401 -408 -21 -153 24 -282 133 -381 79 -71 137 -100 378 -191 237 -88 267 -102 319 -150 72 -64 88 -133 50 -210 -59 -124 -238 -191 -398 -150 -123 32 -273 133 -355 241 -27 35 -27 37 -11 62 15 23 16 27 1 41 -14 14 -22 10 -83 -49 -38 -35 -110 -104 -162 -152 -87 -82 -92 -90 -77 -105 12 -13 18 -14 28 -4 22 22 39 13 120 -63 97 -91 233 -183 335 -225 277 -115 623 -62 801 124 107 112 148 223 140 387 -4 89 -9 107 -42 173 -71 145 -178 213 -545 347 -117 43 -230 90 -251 104 -67 46 -88 140 -50 215 27 53 74 86 150 106 111 28 224 5 338 -69 61 -39 63 -42 57 -74 -5 -26 -2 -35 10 -40 12 -4 55 32 156 133 76 76 139 144 139 151 0 18 -20 27 -33 14 -20 -20 -47 -11 -125 43 -161 112 -267 147 -449 145 -59 -1 -137 -7 -173 -15z" style="fill: rgb(255, 255, 255);"/>
    <path d="M13665 3678 c-8 -19 -21 -24 -75 -30 -79 -8 -163 -38 -230 -83 l-49 -33 -3 47 -3 46 -170 0 c-166 0 -170 -1 -173 -21 -2 -16 4 -23 22 -28 l26 -6 0 -485 0 -485 -25 -6 c-18 -4 -25 -13 -25 -30 l0 -24 200 0 200 0 0 24 c0 18 -6 25 -22 28 l-23 3 -3 274 c-2 261 -1 276 19 318 46 95 159 174 267 189 52 7 53 6 65 -25 7 -19 18 -31 29 -31 17 0 18 14 18 190 0 175 -1 190 -18 190 -9 0 -22 -10 -27 -22z" style="fill: rgb(255, 255, 255);"/>
    <path d="M8295 3669 c-302 -43 -499 -298 -482 -624 11 -206 97 -358 262 -460 81 -50 137 -70 238 -86 187 -29 376 26 500 146 43 41 61 52 80 48 29 -6 45 23 23 41 -207 161 -248 189 -256 176 -5 -8 -7 -25 -3 -38 7 -29 -17 -56 -82 -90 -45 -24 -61 -27 -160 -27 -123 0 -169 14 -239 75 -42 38 -61 70 -71 123 l-7 37 433 2 434 3 3 81 c7 207 -81 392 -236 498 -78 53 -152 81 -258 95 -84 12 -94 12 -179 0z m220 -258 c87 -39 144 -97 165 -171 l9 -30 -295 0 -295 0 7 23 c28 92 98 161 196 193 55 18 154 11 213 -15z" style="fill: rgb(255, 255, 255);"/>
    <path d="M12135 3671 c-290 -46 -474 -254 -492 -556 -19 -336 211 -595 552 -621 182 -14 337 39 462 159 29 27 52 41 70 42 54 0 31 32 -96 130 -108 83 -126 94 -139 82 -11 -11 -11 -19 -3 -35 9 -18 6 -25 -29 -55 -78 -67 -217 -86 -341 -47 -80 24 -135 69 -165 134 -44 94 -82 86 411 86 l435 0 0 98 c0 240 -113 436 -302 525 -108 52 -254 75 -363 58z m174 -247 c97 -27 188 -109 206 -186 l7 -28 -295 0 -296 0 11 33 c29 86 108 159 196 183 64 17 106 17 171 -2z" style="fill: rgb(255, 255, 255);"/>
    <path d="M10922 3654 c-72 -19 -107 -38 -151 -85 -66 -68 -86 -119 -86 -229 0 -79 4 -102 22 -136 46 -85 112 -124 318 -189 147 -45 188 -66 203 -100 42 -92 -28 -155 -171 -155 -84 0 -148 26 -235 93 -49 37 -54 44 -49 73 5 29 -5 44 -28 44 -11 0 -225 -256 -222 -265 2 -5 21 -10 43 -10 30 0 51 -9 94 -41 74 -56 186 -111 262 -129 126 -30 285 -16 385 32 79 39 119 77 155 151 30 60 33 75 33 157 0 71 -4 100 -22 137 -46 101 -157 176 -358 243 -129 43 -160 60 -175 95 -13 32 0 74 29 89 39 21 132 13 186 -17 42 -23 51 -32 55 -62 3 -21 11 -36 20 -37 13 -2 112 102 189 199 21 26 22 31 9 45 -13 12 -19 12 -35 3 -17 -11 -29 -7 -89 29 -127 77 -257 99 -382 65z" style="fill: rgb(255, 255, 255);"/>
    <path d="M6915 3635 c-75 -20 -100 -31 -160 -69 l-54 -35 -3 47 -3 47 -170 0 c-166 0 -170 -1 -173 -21 -2 -16 4 -23 22 -28 l26 -6 0 -829 0 -829 -25 -6 c-16 -4 -25 -13 -25 -26 0 -19 7 -20 200 -20 188 0 200 1 200 18 0 11 -11 24 -25 30 l-25 12 0 355 c0 195 2 355 4 355 2 0 28 -16 58 -35 103 -68 146 -80 303 -79 126 0 147 3 207 26 191 73 303 195 353 383 19 75 19 234 0 308 -52 200 -198 348 -391 397 -91 24 -242 26 -319 5z m272 -276 c67 -32 110 -76 145 -149 18 -36 22 -63 22 -135 0 -78 -3 -97 -26 -140 -54 -104 -145 -162 -267 -172 -144 -12 -277 60 -337 184 -55 112 -29 267 60 356 99 99 267 123 403 56z" style="fill: rgb(255, 255, 255);"/>
    <path d="M9740 3641 c-61 -12 -126 -39 -177 -73 -23 -15 -44 -28 -47 -28 -3 0 -6 19 -8 43 l-3 42 -175 0 c-174 0 -175 0 -178 -22 -2 -15 2 -23 12 -23 8 0 22 -7 30 -16 14 -14 16 -71 16 -483 0 -488 0 -491 -43 -491 -13 0 -18 -6 -15 -22 3 -23 4 -23 206 -26 l202 -2 0 22 c0 15 -9 27 -22 33 l-23 10 0 290 0 290 26 55 c43 90 96 132 190 150 112 21 200 -23 251 -127 l33 -68 3 -288 c4 -301 2 -317 -39 -317 -14 0 -19 -7 -19 -25 l0 -25 210 0 210 0 0 24 c0 18 -6 25 -22 28 l-23 3 -6 335 c-5 308 -8 340 -28 402 -42 131 -162 249 -294 290 -69 21 -203 31 -267 19z" style="fill: rgb(255, 255, 255);"/>
    <path d="M4835 1269 c-91 -22 -127 -110 -66 -161 16 -14 56 -33 91 -42 58 -16 100 -44 100 -65 0 -6 -10 -22 -23 -37 -19 -22 -34 -28 -78 -31 -67 -5 -103 12 -107 50 -3 21 -9 27 -28 27 -21 0 -24 -5 -24 -34 0 -60 43 -86 141 -86 103 0 169 46 169 117 0 46 -35 76 -116 99 -66 19 -104 44 -104 68 0 44 116 74 165 42 14 -9 25 -25 25 -36 0 -13 7 -20 20 -20 43 0 37 71 -8 94 -38 20 -110 27 -157 15z" style="fill: rgb(255, 255, 255);"/>
    <path d="M5176 1165 c-34 -23 -36 -23 -36 -5 0 27 -28 25 -35 -2 -2 -13 -16 -88 -30 -168 -15 -80 -29 -155 -32 -167 -4 -19 -1 -23 20 -23 20 0 27 6 31 30 19 99 15 91 39 75 49 -34 144 -10 172 45 44 86 39 179 -12 220 -34 27 -72 25 -117 -5z m99 -36 c14 -14 10 -110 -5 -140 -24 -45 -42 -59 -80 -59 -48 0 -60 14 -60 75 0 58 26 114 61 133 25 13 66 8 84 -9z" style="fill: rgb(255, 255, 255);"/>
    <path d="M5460 1172 c-95 -48 -122 -225 -40 -267 64 -33 165 -11 189 42 16 34 14 43 -9 43 -11 0 -20 -4 -20 -8 0 -5 -9 -18 -20 -30 -29 -31 -103 -31 -124 0 -9 12 -16 33 -16 45 0 22 2 23 104 23 113 0 116 2 116 60 0 49 -18 80 -55 95 -46 20 -82 19 -125 -3z m108 -38 c16 -11 22 -24 20 -42 -3 -26 -6 -27 -67 -30 -85 -4 -94 0 -79 34 12 26 56 53 88 54 9 0 26 -7 38 -16z" style="fill: rgb(255, 255, 255);"/>
    <path d="M5814 1181 c-12 -5 -25 -14 -29 -20 -9 -16 -25 -13 -25 4 0 8 -8 15 -18 15 -16 0 -22 -19 -41 -127 -30 -166 -29 -158 -4 -161 19 -3 23 4 33 55 19 103 31 147 43 161 20 24 66 43 92 36 30 -8 32 -30 10 -154 -19 -107 -19 -102 8 -98 19 3 24 14 39 88 22 107 23 174 3 190 -19 16 -84 22 -111 11z" style="fill: rgb(255, 255, 255);"/>
    <path d="M6074 1179 c-36 -10 -59 -34 -67 -70 -9 -37 15 -65 76 -84 64 -21 81 -36 72 -64 -12 -40 -113 -43 -130 -3 -11 25 -55 31 -55 8 0 -47 44 -76 115 -76 79 0 125 36 125 98 0 36 -12 47 -87 76 -43 16 -59 28 -61 44 -7 44 104 54 115 11 7 -24 53 -27 53 -3 0 57 -73 87 -156 63z" style="fill: rgb(255, 255, 255);"/>
    <path d="M6355 1176 c-64 -28 -95 -87 -95 -178 0 -35 6 -54 24 -75 22 -26 30 -28 96 -28 68 0 73 2 101 33 16 18 29 39 29 47 0 26 -35 16 -58 -15 -19 -25 -29 -30 -67 -30 -48 0 -75 24 -75 67 0 22 2 23 104 23 99 0 104 1 110 23 28 107 -64 180 -169 133z m113 -54 c7 -9 11 -26 10 -37 -3 -17 -12 -20 -72 -23 -38 -2 -74 2 -79 7 -13 13 17 59 46 71 30 13 79 4 95 -18z" style="fill: rgb(255, 255, 255);"/>
    <path d="M7081 1172 c-58 -29 -75 -63 -79 -151 -4 -77 -4 -78 28 -104 38 -33 115 -37 161 -10 40 24 70 90 72 155 1 65 -14 95 -58 114 -46 19 -83 18 -124 -4z m122 -54 c28 -34 12 -121 -31 -170 -18 -21 -94 -25 -110 -5 -35 42 -13 165 36 192 34 19 81 12 105 -17z" style="fill: rgb(255, 255, 255);"/>
    <path d="M7733 1180 c-12 -5 -26 -17 -32 -27 -10 -16 -10 -16 -11 5 0 15 -6 22 -18 22 -16 0 -22 -19 -41 -132 -13 -73 -24 -137 -25 -143 0 -5 9 -11 21 -13 23 -3 23 -4 44 120 13 80 37 115 84 124 28 5 35 11 35 30 0 26 -17 30 -57 14z" style="fill: rgb(255, 255, 255);"/>
    <path d="M8046 1180 c-44 -14 -75 -49 -91 -104 -19 -63 -19 -90 0 -131 19 -39 51 -55 111 -55 56 0 99 22 119 60 20 38 19 40 -10 40 -14 0 -25 -4 -25 -10 0 -24 -41 -50 -78 -50 -48 0 -70 16 -78 57 l-6 32 108 3 109 3 3 51 c2 42 -1 57 -20 78 -26 29 -93 42 -142 26z m92 -46 c14 -10 22 -25 22 -45 l0 -29 -75 0 c-66 0 -75 2 -75 18 0 10 10 28 23 39 39 36 71 41 105 17z" style="fill: rgb(255, 255, 255);"/>
    <path d="M8647 1171 c-29 -15 -37 -16 -37 -5 0 8 -9 14 -19 14 -21 0 -22 -2 -61 -220 -11 -63 -23 -125 -25 -137 -5 -19 -1 -23 19 -23 26 0 30 8 41 77 l7 43 28 -15 c39 -20 89 -19 126 4 81 49 97 228 24 266 -38 20 -58 19 -103 -4z m67 -31 c47 -17 43 -134 -7 -187 -27 -30 -91 -32 -107 -4 -26 50 3 161 49 186 32 17 33 17 65 5z" style="fill: rgb(255, 255, 255);"/>
    <path d="M8920 1172 c-95 -48 -122 -225 -40 -267 34 -18 112 -20 143 -4 50 26 76 89 37 89 -11 0 -20 -4 -20 -10 0 -26 -41 -50 -84 -50 -49 0 -76 24 -76 67 0 22 2 23 104 23 115 0 116 1 116 66 0 48 -15 73 -55 90 -46 19 -83 18 -125 -4z m108 -38 c16 -11 22 -24 20 -42 -3 -26 -6 -27 -67 -30 -85 -4 -94 0 -79 34 12 26 56 53 88 54 9 0 26 -7 38 -16z" style="fill: rgb(255, 255, 255);"/>
    <path d="M9280 1179 c-13 -5 -33 -17 -42 -26 -17 -15 -18 -15 -18 5 0 15 -6 22 -18 22 -16 0 -22 -18 -41 -132 -26 -161 -26 -158 -1 -158 21 0 23 4 41 110 6 35 17 77 25 92 18 35 68 62 100 54 29 -8 31 -40 9 -166 -8 -47 -15 -86 -15 -88 0 -2 10 -2 23 0 19 3 24 14 39 88 21 106 23 174 4 189 -20 17 -77 22 -106 10z" style="fill: rgb(255, 255, 255);"/>
    <path d="M9521 1172 c-21 -10 -40 -30 -47 -48 -19 -47 0 -75 66 -97 64 -22 80 -33 80 -58 0 -26 -33 -41 -83 -37 -32 2 -44 8 -52 26 -10 22 -39 30 -49 13 -12 -18 13 -58 43 -71 19 -7 54 -11 88 -8 67 6 103 38 103 92 0 40 -11 50 -87 80 -48 18 -58 26 -58 46 0 19 7 26 33 34 38 11 82 -5 82 -29 0 -9 9 -15 25 -15 46 0 26 61 -26 79 -45 16 -79 14 -118 -7z" style="fill: rgb(255, 255, 255);"/>
    <path d="M9810 1172 c-64 -32 -102 -122 -86 -207 9 -49 53 -75 125 -75 47 0 57 4 87 34 19 19 34 41 34 50 0 26 -35 18 -58 -14 -19 -25 -29 -30 -67 -30 -48 0 -75 24 -75 67 0 22 2 23 104 23 115 0 116 1 116 66 0 48 -15 73 -55 90 -46 19 -83 18 -125 -4z m118 -50 c7 -9 11 -26 10 -37 -3 -18 -12 -20 -80 -23 -43 -2 -78 1 -78 5 1 19 29 57 51 69 29 17 79 10 97 -14z" style="fill: rgb(255, 255, 255);"/>
    <path d="M6740 1161 c0 -10 11 -68 25 -129 14 -61 25 -122 25 -136 0 -29 -42 -66 -76 -66 -15 0 -24 -6 -24 -15 0 -40 83 -23 118 25 20 27 182 325 182 335 0 3 -10 5 -23 5 -19 0 -32 -18 -77 -110 -30 -60 -57 -110 -60 -110 -3 0 -13 45 -23 101 -9 55 -19 105 -23 110 -10 17 -44 10 -44 -10z" style="fill: rgb(255, 255, 255);"/>
    <path d="M7327 1083 c-24 -134 -23 -159 8 -179 31 -20 107 -14 134 10 17 16 19 16 24 -4 5 -19 37 -29 37 -12 0 9 38 225 45 260 5 18 1 22 -20 22 -14 0 -25 -2 -25 -4 0 -2 -7 -41 -16 -87 -24 -127 -47 -159 -114 -159 -19 0 -33 6 -37 16 -5 14 7 120 24 207 5 23 2 27 -18 27 -23 0 -25 -6 -42 -97z" style="fill: rgb(255, 255, 255);"/>
    <path d="M8305 1109 l36 -71 -60 -68 c-34 -38 -61 -71 -61 -74 0 -3 11 -6 25 -6 17 0 36 15 67 54 24 30 46 55 50 55 4 1 19 -23 35 -51 19 -36 35 -54 51 -56 30 -5 28 9 -14 85 l-37 65 39 41 c22 23 50 54 63 70 l24 27 -30 0 c-24 0 -37 -10 -69 -50 -21 -27 -42 -49 -45 -50 -3 0 -18 23 -33 50 -21 39 -33 50 -52 50 l-24 0 35 -71z" style="fill: rgb(255, 255, 255);"/>
  </g>
  <g transform="matrix(1, 0, 0, 1, -99.62313042721479, -230.9445029238444)">
    <g>
      <path d="M 377.951 316.445 C 377.101 316.788 375.51 318.136 374.417 319.437 L 372.432 321.802 L 372.432 329.099 L 372.432 336.398 L 378.943 336.908 C 387.561 337.586 396.463 339.738 403.92 342.95 L 410.003 345.57 L 443.036 345.374 L 476.07 345.179 L 477.616 342.196 C 479.756 338.071 480.243 325.902 478.508 319.92 L 477.29 315.722 L 428.395 315.768 C 401.503 315.793 378.803 316.098 377.951 316.445 M 445.328 408.385 C 445.316 415.09 444.605 420.395 442.723 427.789 L 442.197 429.856 L 459.164 429.654 L 476.133 429.454 L 477.662 426.844 C 479.568 423.592 479.918 407.313 478.172 403.166 L 477.151 400.742 L 461.246 400.742 L 445.342 400.742 L 445.328 408.385" stroke="none" fill="#ffe177" fill-rule="evenodd" style=""/>
      <path d="M 378.633 274.028 C 377.336 274.404 375.412 275.744 374.355 277.003 L 372.432 279.291 L 372.432 288.456 C 372.432 304.258 368.006 303.107 427.858 302.864 L 476.216 302.67 L 477.703 299.686 C 479.644 295.796 479.893 279.451 478.066 275.822 L 476.939 273.584 L 428.964 273.461 C 401.533 273.392 379.979 273.634 378.633 274.028 M 477.637 316.936 C 480.261 323.791 480.194 337.231 477.51 342.393 L 475.867 345.553 L 478.274 345.55 C 488.83 345.538 492.106 321.618 482.197 316.904 C 478.904 315.338 477.03 315.35 477.637 316.936 M 372.016 331.01 L 372.061 336.975 L 375.781 337.034 L 379.501 337.093 L 375.996 336.81 L 372.491 336.526 L 372.231 330.785 L 371.971 325.043 L 372.016 331.01 M 430.036 363.246 C 434.499 368.79 439.479 377.662 441.539 383.739 L 442.879 387.69 L 459.216 387.89 L 475.555 388.089 L 477.372 384.908 C 479.56 381.078 480.084 365.198 478.172 360.655 L 477.151 358.231 L 451.576 358.231 L 426 358.231 L 430.036 363.246 M 461.438 400.521 L 477.162 400.769 L 478.177 403.179 C 479.918 407.315 479.563 423.599 477.661 426.844 L 476.13 429.454 L 458.876 429.454 C 449.386 429.454 441.621 429.742 441.622 430.094 C 441.623 431.466 480.561 430.32 482.747 428.885 C 486.698 426.29 487.375 424.298 487.375 415.284 C 487.375 400.814 486.68 400.384 463.231 400.32 L 445.713 400.272 L 461.438 400.521" stroke="none" fill="#ffd064" fill-rule="evenodd" style=""/>
      <path d="M 378.633 274.028 C 377.336 274.404 375.412 275.744 374.355 277.003 L 372.432 279.291 L 372.432 288.456 C 372.432 304.258 368.006 303.107 427.858 302.864 L 476.216 302.67 L 477.703 299.686 C 479.644 295.796 479.893 279.451 478.066 275.822 L 476.939 273.584 L 428.964 273.461 C 401.533 273.392 379.979 273.634 378.633 274.028 M 477.637 316.936 C 480.261 323.791 480.194 337.231 477.51 342.393 L 475.867 345.553 L 478.274 345.55 C 488.83 345.538 492.106 321.618 482.197 316.904 C 478.904 315.338 477.03 315.35 477.637 316.936 M 372.016 331.01 L 372.061 336.975 L 375.781 337.034 L 379.501 337.093 L 375.996 336.81 L 372.491 336.526 L 372.231 330.785 L 371.971 325.043 L 372.016 331.01 M 430.036 363.246 C 434.499 368.79 439.479 377.662 441.539 383.739 L 442.879 387.69 L 459.216 387.89 L 475.555 388.089 L 477.372 384.908 C 479.56 381.078 480.084 365.198 478.172 360.655 L 477.151 358.231 L 451.576 358.231 L 426 358.231 L 430.036 363.246 M 461.438 400.521 L 477.162 400.769 L 478.177 403.179 C 479.918 407.315 479.563 423.599 477.661 426.844 L 476.13 429.454 L 458.876 429.454 C 449.386 429.454 441.621 429.742 441.622 430.094 C 441.623 431.466 480.561 430.32 482.747 428.885 C 486.698 426.29 487.375 424.298 487.375 415.284 C 487.375 400.814 486.68 400.384 463.231 400.32 L 445.713 400.272 L 461.438 400.521" stroke="none" fill="#ffd064" fill-rule="evenodd" style=""/>
      <path d="M 377.951 316.445 C 377.101 316.788 375.51 318.136 374.417 319.437 L 372.432 321.802 L 372.432 329.099 L 372.432 336.398 L 378.943 336.908 C 387.561 337.586 396.463 339.738 403.92 342.95 L 410.003 345.57 L 443.036 345.374 L 476.07 345.179 L 477.616 342.196 C 479.756 338.071 480.243 325.902 478.508 319.92 L 477.29 315.722 L 428.395 315.768 C 401.503 315.793 378.803 316.098 377.951 316.445 M 445.328 408.385 C 445.316 415.09 444.605 420.395 442.723 427.789 L 442.197 429.856 L 459.164 429.654 L 476.133 429.454 L 477.662 426.844 C 479.568 423.592 479.918 407.313 478.172 403.166 L 477.151 400.742 L 461.246 400.742 L 445.342 400.742 L 445.328 408.385" stroke="none" fill="#ffe177" fill-rule="evenodd" style=""/>
      <path d="M 378.633 274.028 C 377.336 274.404 375.412 275.744 374.355 277.003 L 372.432 279.291 L 372.432 288.456 C 372.432 304.258 368.006 303.107 427.858 302.864 L 476.216 302.67 L 477.703 299.686 C 479.644 295.796 479.893 279.451 478.066 275.822 L 476.939 273.584 L 428.964 273.461 C 401.533 273.392 379.979 273.634 378.633 274.028 M 477.637 316.936 C 480.261 323.791 480.194 337.231 477.51 342.393 L 475.867 345.553 L 478.274 345.55 C 488.83 345.538 492.106 321.618 482.197 316.904 C 478.904 315.338 477.03 315.35 477.637 316.936 M 372.016 331.01 L 372.061 336.975 L 375.781 337.034 L 379.501 337.093 L 375.996 336.81 L 372.491 336.526 L 372.231 330.785 L 371.971 325.043 L 372.016 331.01 M 430.036 363.246 C 434.499 368.79 439.479 377.662 441.539 383.739 L 442.879 387.69 L 459.216 387.89 L 475.555 388.089 L 477.372 384.908 C 479.56 381.078 480.084 365.198 478.172 360.655 L 477.151 358.231 L 451.576 358.231 L 426 358.231 L 430.036 363.246 M 461.438 400.521 L 477.162 400.769 L 478.177 403.179 C 479.918 407.315 479.563 423.599 477.661 426.844 L 476.13 429.454 L 458.876 429.454 C 449.386 429.454 441.621 429.742 441.622 430.094 C 441.623 431.466 480.561 430.32 482.747 428.885 C 486.698 426.29 487.375 424.298 487.375 415.284 C 487.375 400.814 486.68 400.384 463.231 400.32 L 445.713 400.272 L 461.438 400.521" stroke="none" fill="#ffd064" fill-rule="evenodd" style=""/>
      <path d="M 270.51 284.171 C 265.805 291.415 261.843 297.618 261.706 297.956 C 261.57 298.292 263.244 298.578 265.426 298.592 C 273.751 298.642 273.486 297.244 273.486 341.029 L 273.486 378.368 L 279.437 378.368 L 285.39 378.368 L 285.39 341.113 C 285.39 297.171 285.108 298.567 293.979 298.567 C 298.202 298.567 298.674 299.804 288.552 284.342 C 278.107 268.389 280.744 268.412 270.51 284.171 M 167.643 497.694 C 168.475 499.129 172.179 505.674 175.873 512.236 C 179.567 518.8 191.623 540.172 202.664 559.73 C 213.705 579.289 223.082 596.236 223.503 597.393 L 224.267 599.494 L 224.326 597.739 C 224.39 595.823 170.178 499.056 167.651 496.576 L 166.131 495.083 L 167.643 497.694" stroke="none" fill="#8ac9fe" fill-rule="evenodd" style=""/>
      <path d="M 262.321 472.392 C 253.833 473.335 250.43 474.992 215.996 494.949 C 196.264 506.385 190.228 510.215 190.559 511.09 C 191.724 514.158 206.205 539.212 206.529 538.718 C 206.734 538.407 228.259 525.808 254.363 510.722 C 280.467 495.638 301.559 483.051 301.233 482.754 C 297.23 479.108 269.16 471.631 262.321 472.392 M 354.007 507.39 C 354.007 508.824 354.159 509.412 354.347 508.695 C 354.534 507.977 354.534 506.801 354.347 506.084 C 354.159 505.366 354.007 505.953 354.007 507.39 M 339.884 519.835 C 340.601 520.024 341.773 520.024 342.488 519.835 C 343.204 519.648 342.618 519.496 341.187 519.496 C 339.754 519.496 339.169 519.648 339.884 519.835 M 352.173 534.032 C 353.51 534.197 355.519 534.195 356.637 534.025 C 357.756 533.854 356.661 533.718 354.206 533.723 C 351.751 533.727 350.836 533.867 352.173 534.032" stroke="none" fill="#f1cbbc" fill-rule="evenodd" style=""/>
      <path d="M 464.091 480.209 C 457.147 482.085 450.176 485.811 412.607 507.728 C 358.067 539.546 360.51 539.155 307.643 524.545 C 286.777 518.779 283.965 516.804 287.949 510.708 C 290.471 506.85 291.605 506.924 310.622 512.188 C 332.768 518.32 336.993 519.297 341.396 519.311 C 356.8 519.358 358.588 498.447 343.492 494.807 C 342.02 494.452 337.009 493.255 332.359 492.148 C 327.708 491.041 319.296 488.648 313.664 486.829 C 308.032 485.01 302.993 483.524 302.467 483.524 C 300.867 483.524 206.533 538.284 206.723 539.102 C 206.821 539.523 210.52 546.283 214.942 554.13 L 222.983 568.394 L 229.821 564.375 C 238.805 559.095 234.934 558.55 285.992 572.291 C 341.72 587.289 343.335 587.515 355.143 581.983 C 371.129 574.497 484.564 502.846 486.041 499.304 C 491.689 485.754 480.291 475.84 464.091 480.209" stroke="none" fill="#f6dccd" fill-rule="evenodd" style=""/>
      <path d="M 477.947 275.634 C 479.892 279.421 479.728 295.627 477.703 299.686 L 476.216 302.67 L 428.23 303.06 L 380.244 303.452 L 430.834 303.434 L 481.423 303.416 L 483.406 302.067 C 492.242 296.053 488.392 273.211 478.541 273.211 L 476.702 273.211 L 477.947 275.634 M 371.967 288.5 C 371.969 293.011 372.092 294.762 372.24 292.387 C 372.388 290.015 372.386 286.322 372.237 284.184 C 372.087 282.045 371.965 283.987 371.967 288.5 M 363.172 350.514 C 319.565 359.883 302.66 413.972 333.132 446.628 C 369.065 485.132 432.821 460.126 433.009 407.453 C 433.141 370.231 399.411 342.729 363.172 350.514 M 451.393 358.028 L 477.159 358.25 L 478.175 360.664 C 480.004 365.009 479.561 381.096 477.517 384.562 C 475.403 388.149 475.385 388.063 478.262 388.059 C 488.573 388.048 492.443 364.991 483.085 359.317 L 480.679 357.859 L 453.152 357.831 L 425.626 357.806 L 451.393 358.028 M 373.443 361.208 C 371.091 362.159 369.457 364.917 369.457 367.938 L 369.457 370.601 L 366.292 371.449 C 342.026 377.955 347.452 406.953 374.017 412.724 C 387.31 415.611 392.481 420.429 389.173 426.843 C 384.461 435.976 363.906 433.709 360.881 423.723 C 359.368 418.727 354.123 417.021 350.888 420.473 C 345.69 426.018 354.442 439.477 365.551 443.022 L 369.457 444.269 L 369.457 447.149 C 369.457 449.214 369.975 450.551 371.284 451.861 C 375.236 455.823 381.36 452.926 381.36 447.097 L 381.36 444.164 L 383.779 443.7 C 411.26 438.442 407.119 408.683 377.906 401.491 C 364.608 398.217 360.846 394.666 363.98 388.344 C 368.349 379.527 382.82 379.807 388.052 388.808 C 390.528 393.068 393.245 394.526 396.324 393.247 C 404.286 389.943 397.359 376.168 385.509 371.744 L 381.732 370.334 L 381.294 367.145 C 380.622 362.251 377.221 359.679 373.443 361.208 M 476.774 430.341 C 477.489 430.529 478.661 430.529 479.378 430.341 C 480.093 430.153 479.508 430 478.075 430 C 476.644 430 476.057 430.153 476.774 430.341" stroke="none" fill="#ffc338" fill-rule="evenodd" style=""/>
      <path d="M 154.1 501.401 C 142.808 507.841 142.072 508.669 144.084 512.672 C 146.148 516.775 196.005 605.082 198.052 608.257 C 200.894 612.666 224.571 602.941 223.305 597.885 C 222.654 595.283 166.06 495.459 165.24 495.466 C 164.83 495.469 159.817 498.14 154.1 501.401 M 157.122 511.176 C 154.943 513.771 154.695 516.187 156.289 519.277 C 159.566 525.631 170.183 521.98 169.058 514.889 C 168.116 508.952 160.878 506.7 157.122 511.176" stroke="none" fill="#ead8bf" fill-rule="evenodd" style=""/>
      <path d="M 274.854 255.897 C 269.922 261.787 243.727 302.949 243.727 304.811 C 243.727 308.957 246.538 310.5 254.083 310.5 L 260.786 310.5 L 260.999 348.476 L 261.21 386.452 L 263.014 388.376 L 264.818 390.3 L 279.381 390.276 C 300.008 390.242 298.036 394.777 298.036 347.369 L 298.036 310.5 L 304.766 310.5 C 319.319 310.5 319.015 308.457 300.198 279.88 C 281.211 251.042 279.933 249.835 274.854 255.897 M 373.196 262.563 C 360.052 267.253 354.541 292.109 363.505 306.277 L 365.754 309.832 L 363.901 312.269 C 360.693 316.484 359.786 320.368 359.786 329.886 L 359.786 338.644 L 355.208 339.931 C 310.659 352.463 291.182 407.926 317.616 446.98 C 344.849 487.216 407.242 487.153 433.264 446.862 L 436.042 442.562 L 460.221 442.348 L 484.399 442.132 L 488.027 440.274 C 500.308 433.988 504.657 408.531 495.506 396.504 L 493.623 394.029 L 495.608 391.421 C 501.65 383.48 501.429 362.544 495.21 353.788 L 493.72 351.692 L 495.211 349.792 C 501.691 341.534 501.603 318.474 495.066 311.492 L 493.548 309.869 L 495.737 306.644 C 504.323 293.986 500.457 270.677 488.614 263.697 L 485.143 261.65 L 430.834 261.514 C 382.827 261.392 376.138 261.515 373.196 262.563 M 270.51 284.171 C 265.805 291.415 261.843 297.618 261.706 297.956 C 261.57 298.292 263.244 298.578 265.426 298.592 C 273.751 298.642 273.486 297.244 273.486 341.029 L 273.486 378.368 L 279.437 378.368 L 285.39 378.368 L 285.39 341.113 C 285.39 297.171 285.108 298.567 293.979 298.567 C 298.202 298.567 298.674 299.804 288.552 284.342 C 278.107 268.389 280.744 268.412 270.51 284.171 M 376.294 274.721 C 369.038 279.156 369.811 299.065 377.368 302.418 L 380.549 303.828 L 430.986 303.621 L 481.423 303.416 L 483.406 302.067 C 489.865 297.67 489.627 278.686 483.061 274.673 L 480.679 273.217 L 429.718 273.217 L 378.756 273.217 L 376.294 274.721 M 375.866 317.278 C 372.514 319.922 371.689 322.456 371.689 330.115 L 371.689 337.126 L 379.686 337.563 C 388.339 338.038 398.025 340.438 404.441 343.696 L 408.094 345.553 L 444.955 345.553 L 481.817 345.553 L 484.597 343.001 L 487.375 340.449 L 487.627 332.131 C 487.911 322.836 487.298 320.459 483.874 317.57 L 481.682 315.722 L 429.761 315.722 L 377.842 315.722 L 375.866 317.278 M 363.172 350.514 C 319.565 359.883 302.66 413.972 333.132 446.628 C 369.065 485.132 432.821 460.126 433.009 407.453 C 433.141 370.231 399.411 342.729 363.172 350.514 M 426.07 358.841 C 426.644 359.624 428.717 362.24 430.676 364.654 C 434.368 369.205 440.187 379.988 441.721 385.119 L 442.601 388.063 L 461.64 388.059 L 480.679 388.057 L 483.061 386.601 C 489.841 382.456 489.859 363.424 483.085 359.317 L 480.679 357.859 L 452.853 357.638 L 425.027 357.417 L 426.07 358.841 M 373.443 361.208 C 371.091 362.159 369.457 364.917 369.457 367.938 L 369.457 370.601 L 366.292 371.449 C 342.026 377.955 347.452 406.953 374.017 412.724 C 387.31 415.611 392.481 420.429 389.173 426.843 C 384.461 435.976 363.906 433.709 360.881 423.723 C 359.368 418.727 354.123 417.021 350.888 420.473 C 345.69 426.018 354.442 439.477 365.551 443.022 L 369.457 444.269 L 369.457 447.149 C 369.457 449.214 369.975 450.551 371.284 451.861 C 375.236 455.823 381.36 452.926 381.36 447.097 L 381.36 444.164 L 383.779 443.7 C 411.26 438.442 407.119 408.683 377.906 401.491 C 364.608 398.217 360.846 394.666 363.98 388.344 C 368.349 379.527 382.82 379.807 388.052 388.808 C 390.528 393.068 393.245 394.526 396.324 393.247 C 404.286 389.943 397.359 376.168 385.509 371.744 L 381.732 370.334 L 381.294 367.145 C 380.622 362.251 377.221 359.679 373.443 361.208 M 445.131 409.132 C 444.872 414.644 444.092 420.606 443.162 424.166 C 442.314 427.411 441.622 430.179 441.622 430.32 C 441.622 430.458 450.241 430.573 460.779 430.572 C 486.812 430.57 487.745 430.041 487.745 415.284 C 487.745 400.739 486.533 399.999 462.746 399.997 L 445.558 399.995 L 445.131 409.132 M 254.887 461.193 C 246.864 463.282 239.139 467.234 209.931 484.196 C 190.255 495.621 183.818 499.032 183.32 498.295 C 182.958 497.759 181.84 495.738 180.833 493.803 C 174.366 481.372 166.14 480.148 150.082 489.228 C 122.798 504.654 122.121 499.532 160.395 567.425 C 194.811 628.475 195.332 629.048 209.716 621.768 C 237.442 607.735 241.563 601.007 232.259 584.968 L 229.024 579.393 L 234.611 576.2 L 240.199 573.007 L 283.068 584.535 C 334.617 598.397 331.704 597.727 340.442 597.706 C 355.227 597.668 353.125 598.752 427.55 552.8 C 495.77 510.677 493.405 512.298 496.845 505.285 L 499.278 500.327 L 499.278 492.485 L 499.278 484.642 L 496.724 479.918 C 484.575 457.456 468.808 460.308 407.59 496.045 C 363.85 521.58 361.659 522.652 364.752 516.967 C 372.471 502.785 361.077 485.546 341.187 481.31 C 329.786 478.883 318.257 475.386 297.886 468.179 C 271.257 458.758 266.936 458.057 254.887 461.193 M 260.838 472.336 C 252.454 473.765 189.67 507.985 190.31 510.777 C 190.677 512.374 222.48 568.529 223.023 568.536 C 223.298 568.541 226.712 566.698 230.61 564.441 C 239.396 559.356 232.266 558.282 285.884 572.774 L 331.887 585.206 L 339.699 585.265 C 351.939 585.358 349.687 586.537 419.644 543.396 C 491.406 499.141 487.73 501.907 487.743 492.15 C 487.775 469.669 471.221 472.958 412.979 507.003 C 358.138 539.059 360.321 538.69 309.192 524.524 C 288.818 518.879 287.621 518.283 287.621 513.776 C 287.621 507.13 290.46 506.973 310.312 512.526 C 344.082 521.972 348.714 522.044 352.988 513.193 C 357.64 503.559 352.391 496.293 338.583 493.254 C 327.365 490.784 310.671 485.68 292.196 479.073 C 271.672 471.731 268.454 471.039 260.838 472.336 M 154.452 500.768 C 144.009 506.727 142.549 507.816 142.549 509.653 C 142.549 510.804 197.209 608.409 199.202 610.815 C 201.466 613.552 224.385 601.377 224.385 597.438 C 224.385 596.01 170.238 499.316 168.007 496.762 C 166.145 494.627 164.216 495.196 154.452 500.768 M 158.809 510.011 C 154.775 512.208 154.772 519.335 158.804 521.499 C 165.786 525.246 172.336 515.904 166.298 510.812 C 163.734 508.649 161.709 508.432 158.809 510.011" stroke="none" fill-rule="evenodd" style="" fill="#252524"/>
    </g>
  </g>
</svg>